<svg xmlns="http://www.w3.org/2000/svg" viewBox="0 0 512 512">
  <defs>
    <linearGradient id="g" x1="0" y1="0" x2="1" y2="1">
      <stop offset="0" stop-color="#34d399"/>
      <stop offset="1" stop-color="#059669"/>
    </linearGradient>
  </defs>
  <rect width="512" height="512" fill="url(#g)"/>
  <g transform="translate(256 280)" fill="white">
    <!-- Center Petal -->
    <path d="M0-160c-50 60-50 140 0 140s50-80 0-140z" opacity="0.95"/>
    <!-- Left Petal -->
    <path d="M-20-10c-50-10-110-60-110-120-20 80 50 160 110 160 10 0 20-5 20-10z" opacity="0.9"/>
    <!-- Right Petal -->
    <path d="M20-10c50-10 110-60 110-120 20 80-50 160-110 160-10 0-20-5-20-10z" opacity="0.9"/>
    <!-- Bottom Petal -->
    <path d="M0 45c-40 0-70-15-80-25 20 40 50 50 80 50s60-10 80-50c-10 10-40 25-80 25z" opacity="0.85"/>
  </g>
</svg>